<svg width="267" height="267" viewBox="0 0 267 267" fill="none" xmlns="http://www.w3.org/2000/svg">
<path fill-rule="evenodd" clip-rule="evenodd" d="M53.3982 133.5C53.3982 89.261 89.2618 53.3982 133.5 53.3982C147.665 53.3982 160.97 57.0751 172.516 63.5264L172.688 5.84401C160.296 2.04412 147.137 0 133.5 0C59.7709 0 0 59.7705 0 133.5C0 207.229 59.7705 267 133.5 267C163.385 267 190.974 257.182 213.22 240.593L178.205 199.976C165.437 208.58 150.056 213.602 133.5 213.602C89.2618 213.602 53.3982 177.739 53.3982 133.5Z" fill="#2563EB"/>
<path fill-rule="evenodd" clip-rule="evenodd" d="M213.504 26.6216C213.41 97.9549 213.311 169.261 213.216 240.594C245.858 216.256 266.996 177.347 266.996 133.501C266.996 89.7825 245.982 50.9729 213.504 26.6216ZM133.496 85.559C107.018 85.559 85.5547 107.022 85.5547 133.501C85.5547 159.979 107.018 181.442 133.496 181.442C159.975 181.442 181.438 159.978 181.438 133.501C181.438 107.023 159.975 85.559 133.496 85.559Z" fill="#000433"/>
</svg>
