<svg width="1478" height="267" viewBox="0 0 1478 267" fill="none" xmlns="http://www.w3.org/2000/svg">
<path fill-rule="evenodd" clip-rule="evenodd" d="M53.3982 133.5C53.3982 89.261 89.2618 53.3982 133.5 53.3982C147.665 53.3982 160.97 57.0751 172.516 63.5264L172.688 5.84401C160.296 2.04412 147.137 0 133.5 0C59.7709 0 0 59.7705 0 133.5C0 207.229 59.7705 267 133.5 267C163.385 267 190.974 257.182 213.22 240.593L178.205 199.976C165.437 208.58 150.056 213.602 133.5 213.602C89.2618 213.602 53.3982 177.739 53.3982 133.5Z" fill="#2563EB"/>
<path fill-rule="evenodd" clip-rule="evenodd" d="M213.504 26.6216C213.41 97.9549 213.311 169.261 213.216 240.594C245.858 216.256 266.996 177.347 266.996 133.501C266.996 89.7825 245.982 50.9729 213.504 26.6216ZM133.496 85.559C107.018 85.559 85.5547 107.022 85.5547 133.501C85.5547 159.979 107.018 181.442 133.496 181.442C159.975 181.442 181.438 159.978 181.438 133.501C181.438 107.023 159.975 85.559 133.496 85.559Z" fill="#000433"/>
<path d="M408.743 159.32H431.963C431.963 175.64 427.883 188.18 419.723 196.94C411.563 205.7 400.043 210.08 385.163 210.08C352.403 210.08 336.023 190.82 336.023 152.3V141.5C336.023 111.14 344.423 92.1198 361.223 84.4398C367.823 81.3198 375.803 79.7598 385.163 79.7598C398.843 79.7598 409.943 83.5398 418.463 91.0998C427.103 98.5398 431.423 109.34 431.423 123.5H408.023C406.703 116.42 404.363 111.08 401.003 107.48C397.643 103.88 392.363 102.08 385.163 102.08C376.763 102.08 370.523 104.72 366.443 110C363.563 113.72 361.883 120.08 361.403 129.08C361.163 131.96 361.043 135.86 361.043 140.78V151.94C361.043 165.74 362.963 175.16 366.803 180.2C370.763 185.24 376.883 187.76 385.163 187.76C393.563 187.76 399.323 185.48 402.443 180.92C405.683 176.24 407.783 169.04 408.743 159.32Z" fill="#2563EB"/>
<path d="M547.239 138.98V148.7C547.239 170.18 543.159 185.78 534.999 195.5C526.959 205.22 513.999 210.08 496.119 210.08C478.239 210.08 465.279 205.22 457.239 195.5C449.319 185.78 445.359 170 445.359 148.16V138.8C445.359 118.88 449.379 104.06 457.419 94.3398C465.579 84.6198 478.419 79.7598 495.939 79.7598C513.579 79.7598 526.539 84.6798 534.819 94.5198C543.099 104.36 547.239 119.18 547.239 138.98ZM522.219 148.16V141.5C522.219 129.98 520.779 120.8 517.899 113.96C514.539 106.04 507.339 102.08 496.299 102.08C485.139 102.08 477.879 106.04 474.519 113.96C471.759 120.44 470.379 129.62 470.379 141.5V148.16C470.379 163.64 472.539 174.08 476.859 179.48C478.539 181.76 480.999 183.74 484.239 185.42C487.599 186.98 491.559 187.76 496.119 187.76C500.799 187.76 504.759 186.98 507.999 185.42C511.239 183.86 513.759 181.94 515.559 179.66C517.359 177.38 518.739 174.38 519.699 170.66C521.379 164.78 522.219 157.28 522.219 148.16Z" fill="#2563EB"/>
<path d="M666.139 209H637.159L612.139 161.48H594.139V209H569.119V108.38C569.119 98.7798 571.339 91.8198 575.779 87.4998C580.219 83.0598 587.659 80.8398 598.099 80.8398H619.339C632.059 80.8398 642.139 84.7398 649.579 92.5398C657.139 100.22 660.919 110 660.919 121.88C660.919 130.52 658.639 138.02 654.079 144.38C649.639 150.62 644.119 154.94 637.519 157.34L666.139 209ZM617.719 140.6C622.999 140.6 627.319 138.8 630.679 135.2C634.159 131.48 635.899 126.92 635.899 121.52C635.899 116 634.219 111.56 630.859 108.2C627.619 104.84 623.239 103.16 617.719 103.16H605.299C597.859 103.16 594.139 106.94 594.139 114.5V140.6H617.719Z" fill="#2563EB"/>
<path d="M771.313 209H725.953C711.553 209 701.413 206.54 695.533 201.62C689.773 196.58 686.893 187.76 686.893 175.16V80.8398H771.313V103.16H711.913V133.22H753.493L751.693 155.54H711.913V173.36C711.913 178.4 713.053 181.88 715.333 183.8C717.613 185.72 721.753 186.68 727.753 186.68H771.313V209Z" fill="#2563EB"/>
<path d="M934.373 144.38L934.553 158.24C934.073 167 932.993 174.38 931.313 180.38C929.633 186.38 926.333 191.84 921.413 196.76C913.253 204.92 901.373 209 885.773 209C867.413 209 854.813 206.6 847.973 201.8C841.133 196.88 837.713 188.06 837.713 175.34V80.8398H887.573C901.973 80.8398 913.253 84.9198 921.413 93.0798C928.013 99.6798 931.913 107.72 933.113 117.2C933.953 123.92 934.373 132.98 934.373 144.38ZM903.953 178.76C906.233 176 907.673 172.22 908.273 167.42C908.993 162.5 909.353 154.88 909.353 144.56C909.353 134.24 908.993 126.8 908.273 122.24C907.673 117.56 906.233 113.84 903.953 111.08C899.633 105.8 893.393 103.16 885.233 103.16H862.733V174.08C862.733 178.88 864.353 182.18 867.593 183.98C870.833 185.78 876.593 186.68 884.873 186.68C893.273 186.68 899.633 184.04 903.953 178.76Z" fill="#000433"/>
<path d="M981.385 209H956.365V80.8398H981.385V209Z" fill="#000433"/>
<path d="M1003.29 148.7V132.86C1003.29 116.18 1007.67 103.16 1016.43 93.7998C1025.19 84.4398 1037.31 79.7598 1052.79 79.7598C1068.27 79.7598 1080.69 84.4398 1090.05 93.7998C1096.65 100.4 1099.95 110.3 1099.95 123.5H1076.55C1076.55 109.22 1068.93 102.08 1053.69 102.08C1049.13 102.08 1045.23 102.98 1041.99 104.78C1038.87 106.46 1036.53 108.44 1034.97 110.72C1033.41 113 1032.21 116.36 1031.37 120.8C1030.53 125.24 1030.05 128.96 1029.93 131.96C1029.81 134.96 1029.75 138.98 1029.75 144.02C1029.75 149.06 1029.75 152.48 1029.75 154.28C1029.87 155.96 1030.05 158.78 1030.29 162.74C1030.65 166.58 1031.13 169.34 1031.73 171.02C1032.45 172.7 1033.41 174.86 1034.61 177.5C1035.93 180.14 1037.55 182 1039.47 183.08C1044.39 186.2 1049.97 187.76 1056.21 187.76C1066.65 187.76 1074.03 183.32 1078.35 174.44V165.8H1062.87V144.92H1099.77V183.62C1096.05 192.38 1090.17 198.98 1082.13 203.42C1074.09 207.86 1064.97 210.08 1054.77 210.08C1036.65 210.08 1023.51 205.04 1015.35 194.96C1007.31 184.76 1003.29 169.34 1003.29 148.7Z" fill="#000433"/>
<path d="M1150.84 209H1125.82V80.8398H1150.84V209Z" fill="#000433"/>
<path d="M1264 103.16H1229.62V209H1204.6V103.16H1170.4V80.8398H1264V103.16Z" fill="#000433"/>
<path d="M1380.69 209H1354.59L1347.39 186.86H1304.37L1297.35 209H1271.25L1312.29 91.6398C1314.09 87.5598 1316.07 84.7398 1318.23 83.1798C1320.51 81.6198 1323.27 80.8398 1326.51 80.8398C1329.75 80.8398 1332.33 81.5598 1334.25 82.9998C1336.29 84.4398 1338.09 87.3198 1339.65 91.6398L1380.69 209ZM1341.63 165.8L1326.51 115.04L1310.67 165.8H1341.63Z" fill="#000433"/>
<path d="M1477.3 209H1439.14C1424.74 209 1414.3 206.24 1407.82 200.72C1401.46 195.08 1398.28 185.96 1398.28 173.36V80.8398H1423.3V173.36C1423.3 178.4 1424.44 181.88 1426.72 183.8C1429 185.72 1433.14 186.68 1439.14 186.68H1477.3V209Z" fill="#000433"/>
</svg>
